<svg xmlns="http://www.w3.org/2000/svg" xmlns:xlink="http://www.w3.org/1999/xlink" preserveAspectRatio="xMidYMid" width="332" height="75" viewBox="0 0 332 75">
  <defs>
    <style>

      .cls-2 {
        fill: #ffffff;
      }
    </style>
  </defs>
  <path d="M325.998,66.734 C321.654,71.485 315.608,73.859 307.858,73.859 C303.014,73.859 298.733,72.766 295.014,70.578 C291.295,68.391 288.435,65.250 286.436,61.156 C284.436,57.063 283.436,52.313 283.436,46.906 C283.436,38.500 285.592,31.938 289.905,27.219 C294.217,22.500 300.295,20.141 308.139,20.141 C315.639,20.141 321.576,22.555 325.952,27.383 C330.326,32.211 332.514,38.719 332.514,46.906 C332.514,55.375 330.342,61.985 325.998,66.734 ZM307.952,29.141 C303.326,29.141 299.975,30.672 297.897,33.734 C295.818,36.797 294.780,41.188 294.780,46.906 C294.780,58.875 299.201,64.859 308.045,64.859 C316.795,64.859 321.170,58.875 321.170,46.906 C321.170,35.063 316.764,29.141 307.952,29.141 ZM267.902,29.328 C258.932,29.328 254.448,35.281 254.448,47.187 C254.448,53.000 255.565,57.367 257.800,60.289 C260.034,63.211 263.308,64.672 267.620,64.672 C272.526,64.672 277.167,63.453 281.542,61.016 C281.542,61.016 281.542,70.625 281.542,70.625 C279.573,71.781 277.471,72.610 275.237,73.109 C273.003,73.609 270.292,73.859 267.105,73.859 C259.260,73.859 253.300,71.571 249.222,66.992 C245.144,62.415 243.105,55.844 243.105,47.281 C243.105,38.562 245.237,31.859 249.503,27.172 C253.769,22.484 259.933,20.141 267.995,20.141 C273.464,20.141 278.385,21.156 282.761,23.188 C282.761,23.188 279.433,32.047 279.433,32.047 C274.776,30.235 270.932,29.328 267.902,29.328 ZM232.305,74.281 C230.055,74.281 228.336,73.640 227.148,72.359 C225.960,71.078 225.367,69.312 225.367,67.062 C225.367,64.782 225.960,63.031 227.148,61.813 C228.336,60.594 230.055,59.984 232.305,59.984 C234.585,59.984 236.320,60.617 237.508,61.883 C238.695,63.148 239.289,64.875 239.289,67.062 C239.289,69.282 238.687,71.040 237.484,72.336 C236.281,73.632 234.555,74.281 232.305,74.281 ZM207.255,42.406 C211.536,44.063 214.645,45.578 216.583,46.953 C218.520,48.329 219.958,49.914 220.895,51.711 C221.833,53.508 222.302,55.656 222.302,58.156 C222.302,63.219 220.457,67.102 216.770,69.805 C213.083,72.508 207.801,73.859 200.927,73.859 C194.020,73.859 188.473,72.813 184.286,70.719 C184.286,70.719 184.286,61.203 184.286,61.203 C190.380,64.016 196.052,65.422 201.302,65.422 C208.082,65.422 211.473,63.375 211.473,59.281 C211.473,57.969 211.098,56.875 210.348,56.000 C209.598,55.125 208.364,54.219 206.645,53.281 C204.926,52.344 202.536,51.282 199.473,50.094 C193.504,47.781 189.466,45.469 187.356,43.156 C185.247,40.844 184.192,37.844 184.192,34.156 C184.192,29.719 185.981,26.274 189.559,23.820 C193.137,21.367 198.004,20.141 204.161,20.141 C210.255,20.141 216.020,21.375 221.458,23.844 C221.458,23.844 217.895,32.141 217.895,32.141 C212.301,29.828 207.598,28.672 203.786,28.672 C197.973,28.672 195.067,30.329 195.067,33.641 C195.067,35.266 195.825,36.641 197.341,37.766 C198.856,38.891 202.161,40.438 207.255,42.406 ZM169.220,65.703 C169.220,65.703 168.845,65.703 168.845,65.703 C166.345,68.860 163.830,71.008 161.298,72.148 C158.767,73.289 155.517,73.859 151.548,73.859 C146.454,73.859 142.478,72.485 139.619,69.734 C136.759,66.985 135.330,63.094 135.330,58.062 C135.330,52.719 137.314,48.687 141.283,45.969 C145.251,43.250 151.298,41.766 159.423,41.516 C159.423,41.516 168.377,41.234 168.377,41.234 C168.377,41.234 168.377,38.469 168.377,38.469 C168.377,35.157 167.603,32.680 166.056,31.039 C164.509,29.398 162.111,28.578 158.861,28.578 C156.204,28.578 153.658,28.969 151.220,29.750 C148.783,30.531 146.439,31.454 144.189,32.516 C144.189,32.516 140.627,24.641 140.627,24.641 C143.439,23.172 146.517,22.055 149.861,21.289 C153.204,20.524 156.360,20.141 159.330,20.141 C165.923,20.141 170.900,21.578 174.259,24.453 C177.618,27.329 179.298,31.844 179.298,38.000 C179.298,38.000 179.298,72.922 179.298,72.922 C179.298,72.922 171.423,72.922 171.423,72.922 C171.423,72.922 169.220,65.703 169.220,65.703 ZM168.283,48.172 C168.283,48.172 161.627,48.453 161.627,48.453 C156.439,48.641 152.665,49.508 150.306,51.055 C147.946,52.602 146.767,54.969 146.767,58.156 C146.767,60.469 147.454,62.258 148.830,63.523 C150.204,64.789 152.267,65.422 155.017,65.422 C159.017,65.422 162.228,64.305 164.650,62.070 C167.071,59.836 168.283,56.703 168.283,52.672 C168.283,52.672 168.283,48.172 168.283,48.172 ZM137.842,72.922 C137.842,72.922 124.905,72.922 124.905,72.922 C124.905,72.922 108.264,50.187 108.264,50.187 C108.264,50.187 102.217,55.156 102.217,55.156 C102.217,55.156 102.217,72.922 102.217,72.922 C102.217,72.922 91.295,72.922 91.295,72.922 C91.295,72.922 91.295,-0.016 91.295,-0.016 C91.295,-0.016 102.217,-0.016 102.217,-0.016 C102.217,-0.016 102.217,35.563 102.217,35.563 C102.217,35.563 101.655,45.547 101.655,45.547 C101.655,45.547 101.936,45.547 101.936,45.547 C101.936,45.547 108.170,37.766 108.170,37.766 C108.170,37.766 123.827,21.078 123.827,21.078 C123.827,21.078 136.530,21.078 136.530,21.078 C136.530,21.078 115.670,43.344 115.670,43.344 C115.670,43.344 137.842,72.922 137.842,72.922 ZM73.042,65.703 C73.042,65.703 72.667,65.703 72.667,65.703 C70.167,68.860 67.652,71.008 65.120,72.148 C62.589,73.289 59.339,73.859 55.370,73.859 C50.276,73.859 46.300,72.485 43.441,69.734 C40.581,66.985 39.152,63.094 39.152,58.062 C39.152,52.719 41.136,48.687 45.105,45.969 C49.073,43.250 55.120,41.766 63.245,41.516 C63.245,41.516 72.198,41.234 72.198,41.234 C72.198,41.234 72.198,38.469 72.198,38.469 C72.198,35.157 71.425,32.680 69.878,31.039 C68.331,29.398 65.933,28.578 62.683,28.578 C60.026,28.578 57.480,28.969 55.042,29.750 C52.605,30.531 50.261,31.454 48.011,32.516 C48.011,32.516 44.448,24.641 44.448,24.641 C47.261,23.172 50.339,22.055 53.683,21.289 C57.026,20.524 60.182,20.141 63.152,20.141 C69.745,20.141 74.722,21.578 78.081,24.453 C81.440,27.329 83.120,31.844 83.120,38.000 C83.120,38.000 83.120,72.922 83.120,72.922 C83.120,72.922 75.245,72.922 75.245,72.922 C75.245,72.922 73.042,65.703 73.042,65.703 ZM72.105,48.172 C72.105,48.172 65.448,48.453 65.448,48.453 C60.261,48.641 56.487,49.508 54.128,51.055 C51.768,52.602 50.589,54.969 50.589,58.156 C50.589,60.469 51.276,62.258 52.652,63.523 C54.026,64.789 56.089,65.422 58.839,65.422 C62.839,65.422 66.050,64.305 68.472,62.070 C70.893,59.836 72.105,56.703 72.105,52.672 C72.105,52.672 72.105,48.172 72.105,48.172 ZM23.055,42.406 C27.336,44.063 30.445,45.578 32.383,46.953 C34.320,48.329 35.758,49.914 36.695,51.711 C37.633,53.508 38.102,55.656 38.102,58.156 C38.102,63.219 36.257,67.102 32.570,69.805 C28.883,72.508 23.601,73.859 16.727,73.859 C9.820,73.859 4.273,72.813 0.086,70.719 C0.086,70.719 0.086,61.203 0.086,61.203 C6.180,64.016 11.852,65.422 17.102,65.422 C23.882,65.422 27.273,63.375 27.273,59.281 C27.273,57.969 26.898,56.875 26.148,56.000 C25.398,55.125 24.164,54.219 22.445,53.281 C20.726,52.344 18.336,51.282 15.273,50.094 C9.304,47.781 5.266,45.469 3.156,43.156 C1.047,40.844 -0.008,37.844 -0.008,34.156 C-0.008,29.719 1.781,26.274 5.359,23.820 C8.937,21.367 13.804,20.141 19.961,20.141 C26.055,20.141 31.820,21.375 37.258,23.844 C37.258,23.844 33.695,32.141 33.695,32.141 C28.101,29.828 23.398,28.672 19.586,28.672 C13.773,28.672 10.867,30.329 10.867,33.641 C10.867,35.266 11.625,36.641 13.141,37.766 C14.656,38.891 17.961,40.438 23.055,42.406 Z" id="path-1" class="cls-2" fill-rule="evenodd"/>
</svg>