<svg xmlns="http://www.w3.org/2000/svg" xmlns:xlink="http://www.w3.org/1999/xlink" preserveAspectRatio="xMidYMid" width="65" height="73" viewBox="0 0 65 73" class="icon">
  <path class="social-icon" d="M2.317,45.715 C4.661,45.855 6.442,46.688 7.661,48.211 C7.661,48.211 9.488,50.496 9.488,50.496 C11.480,53.895 13.789,55.594 16.413,55.594 C16.551,55.594 16.700,55.594 16.862,55.594 C19.618,55.383 21.662,54.996 22.995,54.434 C23.182,52.887 23.559,51.598 24.123,50.566 C24.687,49.535 25.298,48.738 25.957,48.176 C23.394,47.848 20.843,47.309 18.303,46.559 C15.763,45.809 13.492,44.590 11.488,42.902 C9.485,41.168 7.865,38.883 6.630,36.047 C5.395,33.211 4.778,29.543 4.778,25.043 C4.778,22.512 5.211,20.191 6.079,18.082 C6.945,15.973 8.129,14.098 9.629,12.457 C9.348,11.895 9.031,10.500 8.680,8.273 C8.610,7.781 8.575,7.278 8.575,6.762 C8.575,4.840 9.067,2.613 10.051,0.082 C10.051,0.082 10.789,0.012 10.789,0.012 C10.882,0.012 10.988,0.012 11.105,0.012 C11.592,0.012 12.264,0.082 13.121,0.223 C14.141,0.457 15.450,0.914 17.048,1.594 C18.647,2.274 20.559,3.387 22.783,4.934 C24.664,4.418 26.591,4.020 28.566,3.738 C30.541,3.457 32.540,3.316 34.562,3.316 C36.537,3.316 38.511,3.457 40.486,3.738 C42.461,4.020 44.389,4.418 46.270,4.934 C48.527,3.387 50.466,2.274 52.089,1.594 C53.711,0.914 55.039,0.457 56.073,0.223 C56.896,0.082 57.554,0.012 58.049,0.012 C58.189,0.012 58.307,0.012 58.401,0.012 C58.401,0.012 59.177,0.082 59.177,0.082 C60.164,2.613 60.658,4.840 60.658,6.762 C60.658,7.278 60.622,7.781 60.552,8.273 C60.199,10.500 59.882,11.895 59.600,12.457 C61.105,14.098 62.292,15.973 63.162,18.082 C64.032,20.191 64.467,22.512 64.467,25.043 C64.467,29.543 63.843,33.223 62.598,36.082 C61.351,38.942 59.717,41.215 57.695,42.902 C55.626,44.590 53.322,45.809 50.784,46.559 C48.244,47.309 45.659,47.824 43.025,48.105 C43.871,48.862 44.612,49.961 45.247,51.402 C45.882,52.843 46.199,54.651 46.199,56.824 C46.199,58.391 46.199,59.978 46.199,61.585 C46.199,63.192 46.199,64.699 46.199,66.105 C46.199,67.512 46.187,68.742 46.164,69.797 C46.140,70.852 46.129,71.566 46.129,71.941 C46.129,71.941 22.924,71.941 22.924,71.941 C22.924,71.379 22.912,69.890 22.889,67.477 C22.865,65.063 22.853,62.871 22.853,60.902 C20.982,61.324 19.315,61.535 17.855,61.535 C16.800,61.535 15.851,61.438 15.007,61.242 C12.969,60.788 11.363,60.170 10.192,59.389 C9.067,58.566 8.293,57.669 7.871,56.698 C7.871,56.698 7.239,55.418 7.239,55.418 C6.161,52.699 5.024,50.871 3.829,49.934 C3.829,49.934 2.036,48.527 2.036,48.527 C0.677,47.590 -0.003,46.910 -0.003,46.488 C-0.003,46.254 0.196,46.102 0.595,46.031 C0.595,46.031 0.595,46.031 0.595,46.031 C0.595,46.031 2.317,45.715 2.317,45.715 ZM4.391,47.684 C4.462,47.824 4.590,47.942 4.778,48.035 C4.919,48.082 5.071,48.094 5.235,48.070 C5.399,48.047 5.504,47.988 5.551,47.895 C5.645,47.754 5.645,47.613 5.551,47.473 C5.457,47.332 5.317,47.239 5.130,47.191 C4.989,47.098 4.836,47.063 4.673,47.086 C4.508,47.110 4.403,47.191 4.356,47.332 C4.309,47.426 4.321,47.543 4.391,47.684 ZM6.536,49.793 C6.676,49.934 6.840,50.028 7.028,50.074 C7.215,50.121 7.356,50.098 7.450,50.004 C7.590,49.863 7.648,49.700 7.625,49.512 C7.602,49.324 7.496,49.160 7.309,49.020 C7.168,48.832 7.004,48.727 6.817,48.703 C6.629,48.680 6.488,48.715 6.395,48.809 C6.254,48.903 6.196,49.043 6.219,49.230 C6.242,49.418 6.348,49.606 6.536,49.793 C6.536,49.793 6.536,49.793 6.536,49.793 ZM8.293,52.254 C8.434,52.488 8.598,52.641 8.785,52.711 C8.973,52.781 9.137,52.770 9.278,52.676 C9.465,52.582 9.559,52.418 9.559,52.184 C9.559,51.950 9.488,51.739 9.348,51.551 C9.160,51.363 8.973,51.223 8.785,51.129 C8.598,51.036 8.434,51.036 8.293,51.129 C8.153,51.270 8.082,51.445 8.082,51.656 C8.082,51.867 8.153,52.067 8.293,52.254 C8.293,52.254 8.293,52.254 8.293,52.254 ZM10.613,55.066 C10.847,55.301 11.082,55.430 11.316,55.453 C11.550,55.477 11.715,55.418 11.809,55.277 C11.949,55.137 11.996,54.949 11.949,54.715 C11.902,54.481 11.785,54.270 11.598,54.082 C11.363,53.895 11.129,53.778 10.895,53.730 C10.660,53.684 10.496,53.730 10.402,53.871 C10.262,54.012 10.215,54.200 10.262,54.434 C10.309,54.668 10.426,54.879 10.613,55.066 C10.613,55.066 10.613,55.066 10.613,55.066 ZM13.531,56.754 C13.695,56.942 13.894,57.082 14.129,57.176 C14.410,57.270 14.667,57.270 14.902,57.176 C15.136,57.082 15.277,56.942 15.324,56.754 C15.370,56.613 15.324,56.450 15.183,56.262 C15.043,56.074 14.832,55.934 14.550,55.840 C14.269,55.746 14.023,55.734 13.812,55.805 C13.601,55.875 13.449,56.004 13.355,56.191 C13.308,56.379 13.367,56.567 13.531,56.754 ZM17.433,57.837 C17.620,58.006 17.855,58.090 18.136,58.090 C18.417,58.090 18.663,58.006 18.874,57.837 C19.085,57.668 19.167,57.443 19.120,57.161 C19.120,56.937 19.026,56.754 18.839,56.613 C18.651,56.473 18.417,56.402 18.136,56.402 C17.855,56.402 17.620,56.487 17.433,56.656 C17.245,56.825 17.152,57.021 17.152,57.246 C17.152,57.471 17.245,57.668 17.433,57.837 ZM20.984,57.246 C21.196,57.340 21.442,57.364 21.725,57.316 C22.007,57.270 22.230,57.164 22.395,57.000 C22.560,56.836 22.618,56.661 22.572,56.473 C22.524,56.285 22.395,56.145 22.183,56.051 C21.971,55.957 21.725,55.934 21.443,55.980 C21.161,56.028 20.937,56.133 20.773,56.297 C20.608,56.461 20.549,56.637 20.597,56.824 C20.643,57.012 20.772,57.153 20.984,57.246 Z" id="path-1" fill-rule="evenodd"/>
</svg>