<svg xmlns="http://www.w3.org/2000/svg" xmlns:xlink="http://www.w3.org/1999/xlink" preserveAspectRatio="xMidYMid" width="61" height="58" viewBox="0 0 61 58">
  <defs>
    <style>

      .cls-2 {
        fill: #ce2e3a;
      }
    </style>
  </defs>
  <path d="M32.991,57.989 C32.991,57.989 22.586,38.383 22.586,38.383 C22.586,38.383 -0.007,40.886 -0.007,40.886 C-0.007,40.886 15.998,25.147 15.998,25.147 C15.998,25.147 6.639,5.046 6.639,5.046 C6.639,5.046 26.935,14.925 26.935,14.925 C26.935,14.925 43.744,-0.001 43.744,-0.001 C43.744,-0.001 40.283,21.843 40.283,21.843 C40.283,21.843 60.030,32.719 60.030,32.719 C60.030,32.719 37.595,36.341 37.595,36.341 C37.595,36.341 32.991,57.989 32.991,57.989 Z" id="path-1" class="cls-2" fill-rule="evenodd"/>
</svg>