<svg xmlns="http://www.w3.org/2000/svg" xmlns:xlink="http://www.w3.org/1999/xlink" preserveAspectRatio="xMidYMid" width="1267" height="421" viewBox="0 0 1267 421">
  <defs>
    <style>
      .cls-1 {
        fill: #d8e3e9;
        stroke: #000;
        fill-rule: evenodd;
      }
    </style>
  </defs>
  <path d="M1174.000,350.000 L1100.000,0.000 L1267.000,135.000 L1174.000,350.000 ZM813.000,365.000 L828.000,44.000 L1124.000,255.000 L813.000,365.000 ZM603.000,4.000 L807.000,367.000 L481.000,143.000 L603.000,4.000 ZM310.971,81.662 L505.000,56.000 L455.000,88.000 L310.971,81.662 ZM114.000,231.000 L255.000,99.000 L677.000,325.000 L114.000,231.000 ZM20.000,139.000 L179.000,55.000 L-0.000,389.000 L20.000,139.000 ZM666.000,421.000 L87.000,313.000 L683.000,355.000 L666.000,421.000 ZM1100.113,404.703 L849.000,398.000 L1124.000,280.000 L1100.113,404.703 Z" class="cls-1"/>
</svg>
